<svg width="17" height="16" viewBox="0 0 17 16" fill="none" xmlns="http://www.w3.org/2000/svg">
<g clip-path="url(#clip0_2300_46766)">
<path fill-rule="evenodd" clip-rule="evenodd" d="M13.8333 4H3.16667C2.43029 4 1.83333 4.59695 1.83333 5.33333V10.6667C1.83333 11.403 2.43029 12 3.16667 12H13.8333C14.5697 12 15.1667 11.403 15.1667 10.6667V5.33333C15.1667 4.59696 14.5697 4 13.8333 4ZM3.16667 2.66667C1.69391 2.66667 0.5 3.86058 0.5 5.33333V10.6667C0.5 12.1394 1.69391 13.3333 3.16667 13.3333H13.8333C15.3061 13.3333 16.5 12.1394 16.5 10.6667V5.33333C16.5 3.86058 15.3061 2.66667 13.8333 2.66667H3.16667Z" fill="#656B70"/>
<path d="M15.8334 6.66667C15.8334 7.03486 15.5349 7.33333 15.1667 7.33333C13.3257 7.33333 11.8334 5.84095 11.8334 4C11.8334 3.63181 12.1318 3.33333 12.5 3.33333C12.8682 3.33333 13.1667 3.63181 13.1667 4C13.1667 5.10457 14.0621 6 15.1667 6C15.5349 6 15.8334 6.29848 15.8334 6.66667Z" fill="#656B70"/>
<path d="M1.83335 8.66667C1.46516 8.66667 1.16669 8.96514 1.16669 9.33333C1.16669 9.70152 1.46516 10 1.83335 10C2.93792 10 3.83335 10.8954 3.83335 12C3.83335 12.3682 4.13183 12.6667 4.50002 12.6667C4.86821 12.6667 5.16669 12.3682 5.16669 12C5.16669 10.159 3.6743 8.66667 1.83335 8.66667Z" fill="#656B70"/>
<path d="M15.1667 8.66667C15.5349 8.66667 15.8334 8.96514 15.8334 9.33333C15.8334 9.70152 15.5349 10 15.1667 10C14.0621 10 13.1667 10.8954 13.1667 12C13.1667 12.3682 12.8682 12.6667 12.5 12.6667C12.1318 12.6667 11.8334 12.3682 11.8334 12C11.8334 10.159 13.3257 8.66667 15.1667 8.66667Z" fill="#656B70"/>
<path d="M1.83335 7.33333C1.46516 7.33333 1.16669 7.03486 1.16669 6.66667C1.16669 6.29848 1.46516 6 1.83335 6C2.93792 6 3.83335 5.10457 3.83335 4C3.83335 3.63181 4.13183 3.33333 4.50002 3.33333C4.86821 3.33333 5.16669 3.63181 5.16669 4C5.16669 5.84095 3.6743 7.33333 1.83335 7.33333Z" fill="#656B70"/>
<path fill-rule="evenodd" clip-rule="evenodd" d="M8.49998 9.33333C9.23636 9.33333 9.83331 8.73638 9.83331 8C9.83331 7.26362 9.23636 6.66667 8.49998 6.66667C7.7636 6.66667 7.16665 7.26362 7.16665 8C7.16665 8.73638 7.7636 9.33333 8.49998 9.33333ZM8.49998 10.6667C9.97274 10.6667 11.1666 9.47276 11.1666 8C11.1666 6.52724 9.97274 5.33333 8.49998 5.33333C7.02722 5.33333 5.83331 6.52724 5.83331 8C5.83331 9.47276 7.02722 10.6667 8.49998 10.6667Z" fill="#656B70"/>
</g>
<defs>
<clipPath id="clip0_2300_46766">
<rect width="16" height="16" fill="white" transform="translate(0.5)"/>
</clipPath>
</defs>
</svg>
