<svg width="26" height="26" viewBox="0 0 26 26" fill="none" xmlns="http://www.w3.org/2000/svg">
<path fill-rule="evenodd" clip-rule="evenodd" d="M13.0508 2.15314C13.1473 2.16329 14.818 2.84884 16.7578 3.68165C18.6977 4.51446 20.4039 5.25079 20.541 5.32189C20.6832 5.39298 20.9016 5.55548 21.0285 5.68243C21.1555 5.80939 21.318 6.03282 21.3891 6.16993C21.4602 6.31212 21.5566 6.55079 21.6023 6.70314C21.6734 6.95196 21.6836 7.44454 21.6836 11.0348C21.6836 14.4016 21.6684 15.1684 21.6074 15.6051C21.5617 15.8895 21.4703 16.3414 21.3992 16.6055C21.3281 16.8695 21.1859 17.2961 21.0844 17.5449C20.9777 17.7938 20.7949 18.1797 20.668 18.4031C20.541 18.6215 20.2973 18.9871 20.1297 19.2156C19.957 19.4391 19.5914 19.8453 19.3121 20.1094C19.0379 20.3734 18.6418 20.7086 18.4336 20.8508C18.2254 20.993 17.0117 21.7039 15.7422 22.4301C14.4727 23.1563 13.3301 23.7809 13.2031 23.8164C13.0152 23.8723 12.9391 23.8723 12.7715 23.8164C12.6598 23.7809 11.5273 23.1563 10.2578 22.4301C8.98828 21.7039 7.77461 20.993 7.56641 20.8508C7.3582 20.7086 6.97227 20.3836 6.71328 20.1348C6.44922 19.8859 6.12422 19.5406 5.99219 19.3731C5.85508 19.2055 5.62656 18.8754 5.47422 18.6367C5.32695 18.3981 5.10859 17.9867 4.9918 17.7227C4.875 17.4586 4.71758 17.032 4.64648 16.7832C4.57539 16.5344 4.46875 16.0621 4.41797 15.7422C4.32148 15.1988 4.31641 14.8891 4.31641 11.0957C4.31641 7.64259 4.32656 6.98751 4.39258 6.73868C4.4332 6.58126 4.52461 6.34259 4.59063 6.21056C4.65664 6.07345 4.79375 5.8754 4.89023 5.76368C4.98672 5.65196 5.18984 5.48946 5.33711 5.39806C5.48945 5.30665 7.16523 4.57032 9.06445 3.75274C10.9637 2.94024 12.5988 2.24454 12.6953 2.20392C12.7918 2.16837 12.9543 2.14298 13.0508 2.15314V2.15314ZM13.9648 11.6035C13.0559 12.5125 12.2535 13.2945 12.1723 13.3352C12.0961 13.3758 11.959 13.4063 11.8676 13.4063C11.7254 13.4012 11.6137 13.3149 11.0449 12.7461C10.659 12.3652 10.3035 12.0606 10.1918 12.0149C10.0902 11.9692 9.88203 11.9336 9.73477 11.9336C9.55703 11.9336 9.39961 11.9692 9.24219 12.0504C9.11523 12.1164 8.94766 12.2637 8.86133 12.3856C8.74453 12.5531 8.70391 12.675 8.68867 12.8883C8.67852 13.0508 8.69883 13.2692 8.73438 13.3809C8.78516 13.5434 9.0543 13.8379 9.99883 14.7926C10.8723 15.6711 11.2684 16.0317 11.4512 16.1281C11.5883 16.1942 11.7863 16.25 11.8828 16.25C11.9793 16.25 12.152 16.2195 12.2637 16.1891C12.4312 16.1434 12.8477 15.7524 14.7926 13.8176C16.2855 12.3297 17.1539 11.4309 17.2148 11.2988C17.2758 11.177 17.3164 10.9891 17.3164 10.8317C17.3164 10.6641 17.2809 10.4863 17.2199 10.3746C17.1641 10.268 17.0574 10.1207 16.9762 10.0445C16.9 9.96837 16.7477 9.87189 16.641 9.83126C16.5395 9.78556 16.3566 9.75001 16.2348 9.75001C16.118 9.75001 15.9301 9.79571 15.8184 9.84649C15.6863 9.90743 15.0465 10.5168 13.9648 11.6035V11.6035Z" fill="#0D4998"/>
</svg>
