<svg width="26" height="26" viewBox="0 0 26 26" fill="none" xmlns="http://www.w3.org/2000/svg">
<path fill-rule="evenodd" clip-rule="evenodd" d="M22.75 10.9962V19.4641C22.75 21.8772 20.8099 23.8334 18.4167 23.8334H7.58333C5.1901 23.8334 3.25 21.8772 3.25 19.4641V10.9962C3.25 9.68434 3.83462 8.44189 4.84235 7.61209L10.259 3.15181C11.8542 1.83831 14.1458 1.83831 15.741 3.15181L21.1576 7.61209C22.1654 8.44189 22.75 9.68434 22.75 10.9962ZM8.98393 16.5853C8.57084 16.4101 8.09389 16.6029 7.91864 17.016C7.74339 17.4291 7.9362 17.906 8.34929 18.0813C10.114 18.8299 11.5672 19.2328 13.0458 19.2291C14.5252 19.2254 15.9494 18.8149 17.655 18.0794C18.0671 17.9017 18.2571 17.4236 18.0794 17.0116C17.9017 16.5995 17.4236 16.4095 17.0115 16.5872C15.3983 17.2829 14.207 17.6012 13.0418 17.6041C11.8757 17.607 10.655 17.2943 8.98393 16.5853Z" fill="#0D4998"/>
</svg>
