<svg width="26" height="26" viewBox="0 0 26 26" fill="none" xmlns="http://www.w3.org/2000/svg">
<path d="M18.6495 4.33259C18.5934 4.25402 18.0327 3.6942 17.4057 3.09509L16.264 2L15.9887 2L15.7135 2L14.5258 3.13929C13.7153 3.92009 13.3228 4.33259 13.2821 4.44554C13.2107 4.65179 13.2566 4.83839 13.4299 5.01027C13.5369 5.1183 13.6032 5.14286 13.8173 5.14286L14.067 5.14286L14.7501 4.49464L15.428 3.84643L15.428 13L15.428 22.1536L14.7501 21.5054C14.0772 20.8621 14.067 20.8571 13.8326 20.8571C13.4146 20.8571 13.1546 21.1862 13.2821 21.5594C13.3228 21.6674 13.7255 22.0946 14.5258 22.8607L15.7135 24L15.9887 24L16.264 24L17.4516 22.8607C18.099 22.2371 18.6597 21.6625 18.6954 21.5839C18.8483 21.2304 18.5628 20.8571 18.1449 20.8571C17.9104 20.8571 17.9002 20.8621 17.2273 21.5054L16.5494 22.1536L16.5494 13L16.5494 3.84643L17.2273 4.49464L17.9104 5.14286L18.1601 5.14286C18.3742 5.14286 18.4405 5.1183 18.5577 5.00045C18.7463 4.81384 18.782 4.53393 18.6495 4.33259Z" fill="#0D4998"/>
<path d="M12.1812 2.34375C12.1659 2.30446 12.0945 2.21116 12.0232 2.1375L11.8906 2L9.46435 2L7.03804 2L6.88513 2.15223L6.7373 2.29955L6.7373 13L6.7373 23.7004L6.88512 23.8478L7.03804 24L9.46434 24L11.8906 24L12.0436 23.8478C12.1761 23.7152 12.1914 23.6612 12.2118 23.3076L12.2271 22.9196L11.3045 22.9196L10.3819 22.9196L10.2187 22.7772C10.0811 22.6594 10.0505 22.6004 10.0505 22.4286C10.0505 22.2567 10.0811 22.1978 10.2187 22.0799L10.3819 21.9375L11.2994 21.9375L12.2169 21.9375L12.2169 21.3973L12.2169 20.8571L11.4676 20.8571C11.0496 20.8571 10.6265 20.8424 10.5246 20.8277C10.1576 20.7688 9.94349 20.4152 10.1015 20.1254C10.2391 19.8603 10.3819 19.8259 11.3503 19.8259L12.2169 19.8259L12.2169 19.2857L12.2169 18.7455L11.3503 18.7455C10.3819 18.7455 10.2391 18.7112 10.1015 18.446C9.94349 18.1563 10.1576 17.8027 10.5246 17.7438C10.6265 17.729 11.0496 17.7143 11.4676 17.7143L12.2169 17.7143L12.2169 17.1741L12.2169 16.6339L11.2994 16.6339L10.3819 16.6339L10.2187 16.4915C10.0811 16.3737 10.0505 16.3147 10.0505 16.1429C10.0505 15.971 10.0811 15.9121 10.2187 15.7942L10.3819 15.6518L11.2994 15.6518L12.2169 15.6518L12.2169 15.1116L12.2169 14.5714L11.4676 14.5714C11.0496 14.5714 10.6265 14.5567 10.5246 14.542C10.1576 14.483 9.94349 14.1295 10.1015 13.8397C10.2391 13.5746 10.3819 13.5402 11.3503 13.5402L12.2169 13.5402L12.2169 13L12.2169 12.4598L11.3503 12.4598C10.3819 12.4598 10.2391 12.4254 10.1015 12.1603C9.94349 11.8705 10.1576 11.517 10.5246 11.458C10.6265 11.4433 11.0496 11.4286 11.4676 11.4286L12.2169 11.4286L12.2169 10.8884L12.2169 10.3482L11.2994 10.3482L10.3819 10.3482L10.2187 10.2058C10.0811 10.0879 10.0505 10.029 10.0505 9.85714C10.0505 9.68527 10.0811 9.62634 10.2187 9.50848L10.3819 9.36607L11.2994 9.36607L12.2169 9.36607L12.2169 8.82589L12.2169 8.28571L11.4676 8.28571C11.0496 8.28571 10.6265 8.27098 10.5246 8.25625C10.1576 8.19732 9.94349 7.84375 10.1015 7.55402C10.2391 7.28884 10.3819 7.25446 11.3503 7.25446L12.2169 7.25446L12.2169 6.71429L12.2169 6.17411L11.3503 6.17411C10.3819 6.17411 10.2391 6.13973 10.1015 5.87455C9.94349 5.58482 10.1576 5.23125 10.5246 5.17232C10.6265 5.15759 11.0496 5.14286 11.4676 5.14286L12.2169 5.14286L12.2169 4.60268L12.2169 4.0625L11.2994 4.0625L10.3819 4.0625L10.2187 3.92009C10.0811 3.80223 10.0505 3.7433 10.0505 3.57143C10.0505 3.39955 10.0811 3.34063 10.2187 3.22277L10.3819 3.08036L11.2994 3.08036L12.2169 3.08036L12.2118 2.75134C12.2118 2.56473 12.1965 2.38304 12.1812 2.34375Z" fill="#0D4998"/>
</svg>
