<svg width="26" height="26" viewBox="0 0 26 26" fill="none" xmlns="http://www.w3.org/2000/svg">
<path d="M23.7467 18.1458C23.3892 21.0275 21.0275 23.3891 18.1458 23.7466C16.4017 23.9633 14.7767 23.4866 13.5092 22.555C12.7833 22.0241 12.9567 20.8975 13.8233 20.6375C17.0842 19.6516 19.6517 17.0733 20.6483 13.8125C20.9083 12.9566 22.035 12.7833 22.5658 13.4983C23.4867 14.7766 23.9633 16.4016 23.7467 18.1458Z" fill="#0D4998"/>
<path d="M10.8226 2.16669C6.04508 2.16669 2.16675 6.04502 2.16675 10.8225C2.16675 15.6 6.04508 19.4784 10.8226 19.4784C15.6001 19.4784 19.4784 15.6 19.4784 10.8225C19.4676 6.04502 15.6001 2.16669 10.8226 2.16669Z" fill="#0D4998"/>
</svg>
