<svg width="26" height="26" viewBox="0 0 26 26" fill="none" xmlns="http://www.w3.org/2000/svg">
<path d="M18.1458 3.85669V2.16669C18.1458 1.72252 17.7774 1.35419 17.3333 1.35419C16.8891 1.35419 16.5208 1.72252 16.5208 2.16669V3.79169H9.47909V2.16669C9.47909 1.72252 9.11076 1.35419 8.66659 1.35419C8.22242 1.35419 7.85409 1.72252 7.85409 2.16669V3.85669C4.92909 4.12752 3.50992 5.87169 3.29326 8.46085C3.27159 8.77502 3.53159 9.03502 3.83492 9.03502H22.1649C22.4791 9.03502 22.7391 8.76419 22.7066 8.46085C22.4899 5.87169 21.0708 4.12752 18.1458 3.85669Z" fill="#0D4998"/>
<path d="M21.6667 10.66H4.33333C3.7375 10.66 3.25 11.1475 3.25 11.7433V18.4166C3.25 21.6666 4.875 23.8333 8.66667 23.8333H17.3333C21.125 23.8333 22.75 21.6666 22.75 18.4166V11.7433C22.75 11.1475 22.2625 10.66 21.6667 10.66ZM9.9775 19.7275C9.86917 19.825 9.75 19.9008 9.62 19.955C9.49 20.0091 9.34917 20.0416 9.20833 20.0416C9.0675 20.0416 8.92667 20.0091 8.79667 19.955C8.66667 19.9008 8.5475 19.825 8.43917 19.7275C8.24417 19.5216 8.125 19.24 8.125 18.9583C8.125 18.6766 8.24417 18.395 8.43917 18.1891C8.5475 18.0916 8.66667 18.0158 8.79667 17.9616C9.05667 17.8533 9.36 17.8533 9.62 17.9616C9.75 18.0158 9.86917 18.0916 9.9775 18.1891C10.1725 18.395 10.2917 18.6766 10.2917 18.9583C10.2917 19.24 10.1725 19.5216 9.9775 19.7275ZM10.205 15.5783C10.1508 15.7083 10.075 15.8275 9.9775 15.9358C9.86917 16.0333 9.75 16.1091 9.62 16.1633C9.49 16.2175 9.34917 16.25 9.20833 16.25C9.0675 16.25 8.92667 16.2175 8.79667 16.1633C8.66667 16.1091 8.5475 16.0333 8.43917 15.9358C8.34167 15.8275 8.26583 15.7083 8.21167 15.5783C8.1575 15.4483 8.125 15.3075 8.125 15.1666C8.125 15.0258 8.1575 14.885 8.21167 14.755C8.26583 14.625 8.34167 14.5058 8.43917 14.3975C8.5475 14.3 8.66667 14.2241 8.79667 14.17C9.05667 14.0616 9.36 14.0616 9.62 14.17C9.75 14.2241 9.86917 14.3 9.9775 14.3975C10.075 14.5058 10.1508 14.625 10.205 14.755C10.2592 14.885 10.2917 15.0258 10.2917 15.1666C10.2917 15.3075 10.2592 15.4483 10.205 15.5783ZM13.7692 15.9358C13.6608 16.0333 13.5417 16.1091 13.4117 16.1633C13.2817 16.2175 13.1408 16.25 13 16.25C12.8592 16.25 12.7183 16.2175 12.5883 16.1633C12.4583 16.1091 12.3392 16.0333 12.2308 15.9358C12.0358 15.73 11.9167 15.4483 11.9167 15.1666C11.9167 14.885 12.0358 14.6033 12.2308 14.3975C12.3392 14.3 12.4583 14.2241 12.5883 14.17C12.8483 14.0508 13.1517 14.0508 13.4117 14.17C13.5417 14.2241 13.6608 14.3 13.7692 14.3975C13.9642 14.6033 14.0833 14.885 14.0833 15.1666C14.0833 15.4483 13.9642 15.73 13.7692 15.9358Z" fill="#0D4998"/>
</svg>
