<svg width="26" height="26" viewBox="0 0 26 26" fill="none" xmlns="http://www.w3.org/2000/svg">
<g clip-path="url(#clip0_4271_6489)">
<path fill-rule="evenodd" clip-rule="evenodd" d="M5.89065 0.00507635C6.36292 -1.77046e-06 6.65745 0.0253888 7.03323 0.106639C7.31253 0.167576 7.69847 0.274217 7.89651 0.340233C8.09456 0.411326 8.38909 0.538279 8.55667 0.619529C8.72425 0.705858 9.04417 0.893748 9.26761 1.04101C9.49104 1.18828 9.84651 1.47773 10.0496 1.68594C10.2578 1.88906 10.5575 2.2293 10.7098 2.4375C10.8672 2.6457 11.0805 2.98086 11.1821 3.17383C11.2836 3.37187 11.4258 3.6918 11.4969 3.88476C11.5629 4.07773 11.6543 4.37734 11.7 4.54492C11.7407 4.7125 11.8016 5.08828 11.8321 5.38281C11.8575 5.67734 11.8828 6.32226 11.8828 6.81992C11.8828 7.3125 11.8575 7.94219 11.8321 8.21133C11.8016 8.48555 11.7203 8.92734 11.6492 9.1914C11.5782 9.46055 11.4004 9.92265 11.2481 10.2324C11.0957 10.5422 10.852 10.9484 10.7047 11.1465C10.5575 11.3395 10.2629 11.6695 10.0547 11.8777C9.84651 12.0809 9.49104 12.3703 9.26761 12.5176C9.04417 12.6648 8.7344 12.8477 8.58206 12.9238C8.42972 13 8.1555 13.1219 7.97269 13.1879C7.78987 13.259 7.45979 13.3555 6.83011 13.4926L6.80472 24.3242H10.3086L10.2832 24.182C10.268 24.1059 10.2325 23.8977 10.2071 23.7148C10.1817 23.532 10.1614 23.1715 10.1563 22.4453L9.86175 22.3082C9.68909 22.2219 9.43518 22.034 9.23714 21.8359C9.0137 21.6125 8.8512 21.3992 8.74964 21.1758C8.66331 20.993 8.56683 20.7238 8.53636 20.5766C8.50589 20.4344 8.4805 19.825 8.4805 19.2207C8.4805 18.6164 8.50589 18.007 8.53636 17.8598C8.56683 17.7176 8.65823 17.4586 8.7344 17.291C8.81565 17.1234 8.98831 16.8645 9.12542 16.7121C9.25745 16.5598 9.47073 16.3668 9.59769 16.2855C9.72464 16.1992 9.95315 16.0773 10.3848 15.9047L10.984 14.107C11.3192 13.0965 11.6594 12.1824 11.7559 12.0098C11.8473 11.8422 12.025 11.6086 12.1469 11.4918C12.2688 11.3801 12.477 11.2125 12.6192 11.1262C12.7563 11.0348 13.0305 10.9129 13.2285 10.852C13.5789 10.7402 13.6094 10.7402 17.2403 10.7402C20.866 10.7402 20.9016 10.7402 21.252 10.852C21.45 10.9129 21.7446 11.05 21.9121 11.1617C22.0797 11.2684 22.2981 11.4461 22.3946 11.5578C22.4961 11.6645 22.6434 11.8676 22.7246 12.0098C22.811 12.1469 23.1512 13.0863 24.1059 15.9199L24.3446 16.0062C24.4715 16.057 24.7 16.1738 24.8422 16.2652C24.9895 16.3617 25.2231 16.5598 25.3551 16.7121C25.4922 16.8645 25.6649 17.1234 25.7461 17.291C25.8223 17.4586 25.9137 17.7328 25.9442 17.9004C25.9746 18.068 26 18.6773 26 19.2562C26 19.8453 25.9746 20.4293 25.9442 20.5766C25.9137 20.7238 25.8121 20.993 25.7258 21.1758C25.6242 21.384 25.4516 21.6227 25.2383 21.8359C25.0352 22.0391 24.7965 22.2219 24.3242 22.4453V22.9125C24.3192 23.1715 24.2989 23.532 24.2735 23.7148C24.2481 23.8977 24.2125 24.1059 24.1719 24.3242H24.7559C25.1215 24.3242 25.4008 24.3496 25.5024 24.3902C25.5938 24.4258 25.736 24.5477 25.8223 24.6594C25.9086 24.7762 25.9797 24.9437 25.995 25.0605C26.0102 25.1977 25.9797 25.3398 25.9086 25.4922C25.8426 25.6344 25.7258 25.7715 25.3907 26H0.609404L0.416435 25.8781C0.314873 25.807 0.172685 25.6547 0.10667 25.5328C0.0152633 25.3652 -0.0101273 25.2586 0.00510705 25.0809C0.0203414 24.9234 0.0762008 24.7914 0.177763 24.6543C0.264091 24.5477 0.406279 24.4258 0.492607 24.3902C0.624638 24.3395 1.16292 24.3242 5.07815 24.3242L5.05276 13.4926L4.72269 13.4215C4.53987 13.3859 4.24534 13.3047 4.06253 13.2488C3.87972 13.1879 3.54964 13.0457 3.3262 12.934C3.10276 12.8223 2.76253 12.6293 2.56448 12.4973C2.37151 12.3703 2.01604 12.0707 1.77737 11.832C1.53362 11.5934 1.23401 11.2531 1.10706 11.0703C0.975029 10.8875 0.771904 10.532 0.644951 10.2832C0.517998 10.0344 0.355498 9.6332 0.279326 9.39453C0.208232 9.15586 0.111748 8.73437 0.0660445 8.45508C0.00510705 8.04883 -0.0050492 7.65781 0.0152633 6.52539C0.0304977 5.43867 0.0609664 5.01211 0.126982 4.72265C0.172685 4.51445 0.259013 4.20469 0.314873 4.03711C0.370732 3.86953 0.528154 3.51406 0.665263 3.25C0.797295 2.98594 1.03089 2.60508 1.17308 2.41211C1.32034 2.21914 1.57933 1.91953 1.7469 1.74687C1.91956 1.5793 2.21917 1.32031 2.41214 1.17305C2.60511 1.03086 2.98597 0.797264 3.25003 0.665233C3.51409 0.528123 3.87972 0.370701 4.06253 0.309764C4.24534 0.248826 4.58558 0.15742 4.82425 0.106639C5.10354 0.0457013 5.47933 0.0101545 5.89065 0.00507635V0.00507635ZM3.56995 3.70195C3.50901 3.78828 3.443 3.93554 3.42776 4.02187C3.41253 4.11328 3.40237 5.41836 3.41253 6.9164C3.42776 9.5875 3.42776 9.64336 3.5344 9.78555C3.59026 9.86172 3.71722 9.98359 3.8137 10.0445C3.95589 10.1461 4.03714 10.1613 4.27581 10.1461C4.46878 10.1359 4.61097 10.0953 4.70745 10.0242C4.78362 9.96328 4.89534 9.85156 4.9512 9.78047C5.03753 9.66367 5.05276 9.54687 5.068 9.05937L5.07815 8.48047C5.9262 8.48047 6.31214 8.44492 6.48987 8.4043C6.66253 8.36367 6.94183 8.25703 7.1094 8.17578C7.27698 8.08945 7.5512 7.88633 7.71878 7.71875C7.88636 7.55117 8.08948 7.27695 8.17581 7.10937C8.25706 6.9418 8.3637 6.65234 8.4094 6.45937C8.46526 6.23086 8.4805 6.00742 8.46019 5.76367C8.44495 5.56562 8.39417 5.2914 8.34339 5.1543C8.29769 5.01211 8.2012 4.79883 8.13011 4.67187C8.05901 4.54492 7.8762 4.3164 7.71878 4.16406C7.56644 4.00664 7.32776 3.81367 7.18558 3.73242C7.04847 3.65625 6.7844 3.54453 6.60159 3.49375C6.32737 3.41758 6.0887 3.40234 5.15433 3.40234C4.35198 3.40742 3.98636 3.42773 3.86448 3.47344C3.768 3.50898 3.63597 3.61055 3.56995 3.70195V3.70195ZM13.2539 12.807C13.1981 12.8984 12.9492 13.5891 12.6953 14.3457C12.4465 15.1023 12.2383 15.7473 12.2383 15.7777C12.2383 15.8285 13.2742 15.8437 17.2403 15.8437C21.2063 15.8437 22.2422 15.8285 22.2422 15.7777C22.2422 15.7473 22.034 15.1023 21.7852 14.3457C21.5313 13.5891 21.2825 12.8984 21.2266 12.807C21.1707 12.7156 21.0285 12.5988 20.9117 12.543C20.6985 12.4465 20.5715 12.4414 17.2403 12.4414C13.909 12.4414 13.7821 12.4465 13.5739 12.543C13.452 12.5988 13.3098 12.7156 13.2539 12.807ZM10.3746 17.8191C10.3137 17.9055 10.2375 18.0629 10.2071 18.1645C10.1817 18.2711 10.1563 18.7586 10.1563 19.2461C10.1614 19.8961 10.1817 20.1906 10.2375 20.3379C10.2782 20.4496 10.3492 20.5867 10.4 20.6375C10.4457 20.6883 10.5778 20.7746 10.6895 20.8254C10.8672 20.9066 11.0348 20.9219 12.0504 20.9219C12.9391 20.9219 13.2032 20.9066 13.2032 20.8559C13.2032 20.8254 12.9594 20.0586 12.6547 19.1547L12.1114 17.5195C11.0754 17.5246 10.7809 17.55 10.6692 17.5906C10.5727 17.6262 10.4407 17.7277 10.3746 17.8191V17.8191ZM21.8207 19.1547C21.5211 20.0586 21.2774 20.8254 21.2774 20.8559C21.2774 20.9066 21.5414 20.9219 22.4352 20.9219C23.5321 20.9219 23.5981 20.9168 23.8164 20.8102C23.9434 20.7441 24.0957 20.6121 24.1567 20.5156C24.2227 20.4191 24.2887 20.2211 24.3039 20.084C24.3192 19.9418 24.3242 19.4543 24.3141 18.9922C24.2989 18.3422 24.2785 18.1187 24.2125 18.002C24.1668 17.9207 24.0754 17.7988 24.0094 17.7379C23.9485 17.677 23.8317 17.6059 23.7555 17.5754C23.6742 17.5449 23.334 17.5195 22.9887 17.5195H22.3641L21.8207 19.1547ZM15.2852 22.9633C15.2801 23.1664 15.2598 23.4812 15.2344 23.659C15.209 23.8418 15.1735 24.0652 15.1481 24.1566L15.1075 24.3242H19.3731C19.3071 24.0652 19.2664 23.852 19.241 23.6844C19.2157 23.5219 19.1953 23.207 19.1953 22.9887V22.5926H15.2852V22.9633ZM5.07815 5.07812H5.56058C5.88219 5.07812 6.10732 5.10521 6.23597 5.15937C6.33753 5.2 6.46956 5.27617 6.52034 5.32187C6.57112 5.36758 6.64729 5.47422 6.68792 5.56055C6.73362 5.6418 6.76409 5.82461 6.75901 5.9668C6.75901 6.11914 6.71839 6.28164 6.66253 6.37305C6.60667 6.4543 6.47464 6.58125 6.368 6.64726C6.19026 6.75898 6.11409 6.77422 5.10354 6.7793L5.07815 5.07812Z" fill="#0D4998"/>
</g>
<defs>
<clipPath id="clip0_4271_6489">
<rect width="26" height="26" fill="white"/>
</clipPath>
</defs>
</svg>
