<svg width="26" height="26" viewBox="0 0 26 26" fill="none" xmlns="http://www.w3.org/2000/svg">
<path d="M12.6242 2.05895C12.3835 2.19648 2.13753 10.91 2.07368 11.0377C2.03438 11.1114 2 11.2931 2 11.4356C2 11.9169 2.29962 12.2116 2.78589 12.2116C3.11007 12.2116 3.17883 12.1723 3.84193 11.6075L4.33311 11.19L4.35766 16.7207C4.38222 21.8781 4.38714 22.271 4.47064 22.4773C4.7457 23.1699 5.34985 23.7298 6.03259 23.9263C6.26836 23.9901 6.55815 24 7.92363 23.9901C9.50032 23.9754 9.54453 23.9705 9.77047 23.8624C10.0652 23.7151 10.3599 23.4204 10.5072 23.1257C10.6202 22.8948 10.6202 22.885 10.6349 20.6059L10.6497 18.317L10.2764 16.8238L9.89818 15.3306L9.92274 14.7658C9.94729 14.142 10.0504 13.7785 10.355 13.2579C10.6006 12.8403 12.58 10.8707 13.0024 10.6251C13.4936 10.3402 13.8767 10.2371 14.5005 10.2125L15.0408 10.188L17.2266 10.7381C19.9821 11.4258 19.8839 11.3815 20.8957 12.3786L21.6472 13.1105L21.657 12.1478L21.6718 11.19L22.1629 11.6075C22.826 12.1723 22.8948 12.2116 23.219 12.2116C23.7052 12.2116 24.0049 11.9169 24.0049 11.4356C24.0049 11.2931 23.9705 11.1114 23.9312 11.0377C23.8673 10.91 13.6213 2.19648 13.3806 2.05895C13.3217 2.02456 13.1498 2 13.0024 2C12.8551 2 12.6832 2.02456 12.6242 2.05895Z" fill="#0D4998"/>
<path d="M14.078 11.7892C13.7489 11.9071 13.5721 12.0545 12.6241 13.0073C11.1702 14.4711 11.1997 14.2844 11.9266 17.1873C12.1968 18.2728 12.462 19.2601 12.516 19.3829C12.5897 19.5499 13.1054 20.0951 14.6625 21.6619C17.0103 24.0147 16.9907 24 17.698 24C18.3955 24 18.3365 24.0442 21.0675 21.3132C22.6589 19.7169 23.4939 18.8426 23.5725 18.6952C23.6707 18.5086 23.6855 18.4054 23.6855 17.983C23.6855 17.5606 23.6707 17.4623 23.5676 17.2708C23.4939 17.1234 22.7571 16.3474 21.4064 14.9966C19.8297 13.415 19.3091 12.9189 19.1175 12.8256C18.9849 12.7618 17.978 12.4867 16.8826 12.2116C14.7951 11.6959 14.4709 11.6468 14.078 11.7892ZM15.8511 15.1243C16.362 15.4632 16.3227 16.1705 15.7775 16.4358C15.6056 16.5193 15.5122 16.534 15.3551 16.5095C15.1242 16.4702 14.859 16.259 14.7705 16.0428C14.687 15.8464 14.7313 15.4976 14.859 15.3159C15.08 15.0114 15.5515 14.918 15.8511 15.1243Z" fill="#0D4998"/>
</svg>
