<svg width="26" height="26" viewBox="0 0 26 26" fill="none" xmlns="http://www.w3.org/2000/svg">
<g clip-path="url(#clip0_4271_10276)">
<path d="M5.02734 0H6.55078V0.218359C6.55078 0.340234 6.60664 0.548437 6.68281 0.710938C6.75391 0.863281 6.87578 1.08164 6.95703 1.19336C7.0332 1.30508 7.15508 1.51836 7.23125 1.66562C7.30234 1.80781 7.39883 2.07188 7.43945 2.24453C7.48008 2.42227 7.51562 2.79297 7.51562 3.07227C7.51562 3.35156 7.48008 3.72227 7.43945 3.9C7.39883 4.07266 7.30234 4.33672 7.23125 4.47891C7.15508 4.62617 7.0332 4.83945 6.95703 4.95117C6.87578 5.06289 6.75391 5.28125 6.68281 5.43359C6.60664 5.59609 6.55078 5.8043 6.55078 6.14453H5.02734V5.87539C5.02734 5.7332 5.06289 5.4793 5.10352 5.3168C5.14414 5.15937 5.2457 4.89531 5.32695 4.73281C5.4082 4.57539 5.56563 4.29609 5.68242 4.11328C5.79922 3.93047 5.91602 3.70195 5.94141 3.60547C5.97188 3.50898 5.99219 3.26523 5.99219 3.07227C5.99219 2.87422 5.97188 2.63555 5.94141 2.53906C5.91602 2.44258 5.79922 2.21406 5.68242 2.03125C5.56563 1.84844 5.4082 1.56914 5.32695 1.40664C5.2457 1.24922 5.14414 0.985156 5.10352 0.822656C5.06289 0.665234 5.02734 0.411328 5.02734 0.264062V0ZM8.07422 0H9.59766V0.218359C9.59766 0.345313 9.65352 0.553516 9.72969 0.710938C9.80078 0.868359 9.92266 1.08164 10.0039 1.19336C10.0801 1.30508 10.202 1.51836 10.2781 1.66562C10.3492 1.81289 10.4457 2.07695 10.4863 2.24961C10.527 2.42227 10.5625 2.79297 10.5625 3.07227C10.5625 3.35156 10.527 3.72734 10.4863 3.9C10.4457 4.07266 10.3492 4.33672 10.2781 4.48398C10.202 4.63125 10.0801 4.83945 10.0039 4.95117C9.92266 5.06797 9.80078 5.28125 9.72969 5.43359C9.65352 5.59609 9.59766 5.8043 9.59766 6.14453H8.07422V5.88047C8.07422 5.7332 8.10977 5.48438 8.15039 5.32188C8.19102 5.15938 8.29258 4.90039 8.37383 4.73789C8.45508 4.57539 8.6125 4.29609 8.7293 4.11328C8.84609 3.93555 8.96289 3.70703 8.98828 3.60547C9.01875 3.50898 9.03906 3.27031 9.03906 3.07227C9.03906 2.8793 9.01875 2.64062 8.98828 2.53906C8.96289 2.44258 8.84609 2.21406 8.7293 2.03125C8.6125 1.85352 8.45508 1.57422 8.37383 1.41172C8.29258 1.24922 8.19102 0.990234 8.15039 0.827734C8.10977 0.665234 8.07422 0.416406 8.07422 0.269141V0ZM11.1211 0H12.6445V0.213281C12.6445 0.340234 12.7004 0.548437 12.7766 0.710938C12.8477 0.863281 12.9695 1.08164 13.0457 1.19336C13.127 1.30508 13.2488 1.51836 13.325 1.66055C13.3961 1.80781 13.4926 2.07188 13.5332 2.24453C13.5738 2.42227 13.6094 2.79297 13.6094 3.07227C13.6094 3.35156 13.5738 3.72227 13.5332 3.89492C13.4926 4.07266 13.3961 4.33672 13.325 4.47891C13.2488 4.62617 13.127 4.83945 13.0457 4.95117C12.9695 5.06289 12.8477 5.28125 12.7766 5.43359C12.7004 5.59609 12.6445 5.8043 12.6445 6.14453H11.1211V5.87539C11.1211 5.7332 11.1566 5.4793 11.1973 5.3168C11.2379 5.15937 11.3395 4.89531 11.4207 4.73281C11.4969 4.57539 11.6594 4.29609 11.7762 4.11328C11.893 3.93047 12.0098 3.70195 12.0352 3.60547C12.0605 3.50898 12.0859 3.26523 12.0859 3.07227C12.0859 2.87422 12.0605 2.63555 12.0352 2.53906C12.0098 2.44258 11.893 2.21406 11.7762 2.03125C11.6594 1.84844 11.4969 1.56914 11.4207 1.40664C11.3395 1.24922 11.2379 0.985156 11.1973 0.822656C11.1566 0.665234 11.1211 0.411328 11.1211 0.264062V0ZM14.168 0H15.6914V0.218359C15.6914 0.345313 15.7473 0.553516 15.8234 0.710938C15.8945 0.868359 16.0164 1.08164 16.0926 1.19336C16.1738 1.30508 16.2957 1.51836 16.3719 1.66562C16.443 1.81289 16.5395 2.07695 16.5801 2.24961C16.6207 2.42227 16.6562 2.79297 16.6562 3.07227C16.6562 3.35156 16.6207 3.72734 16.5801 3.9C16.5395 4.07266 16.443 4.33672 16.3719 4.48398C16.2957 4.63125 16.1738 4.83945 16.0926 4.95117C16.0164 5.06797 15.8945 5.28125 15.8234 5.43359C15.7473 5.59609 15.6914 5.8043 15.6914 6.14453H14.168V5.88047C14.168 5.7332 14.2035 5.48438 14.2441 5.32188C14.2848 5.15938 14.3863 4.90039 14.4676 4.73789C14.5437 4.57539 14.7062 4.29609 14.823 4.11328C14.9398 3.93555 15.0566 3.70703 15.082 3.60547C15.1074 3.50898 15.1328 3.27031 15.1328 3.07227C15.1328 2.8793 15.1074 2.64062 15.082 2.53906C15.0566 2.44258 14.9398 2.21406 14.823 2.03125C14.7062 1.85352 14.5437 1.57422 14.4676 1.41172C14.3863 1.24922 14.2848 0.990234 14.2441 0.827734C14.2035 0.665234 14.168 0.416406 14.168 0.269141V0ZM17.2148 0H18.7383V0.213281C18.7383 0.340234 18.7941 0.548437 18.8703 0.710938C18.9414 0.863281 19.0633 1.08164 19.1395 1.19336C19.2207 1.30508 19.3426 1.51836 19.4137 1.66055C19.4898 1.80781 19.5813 2.07188 19.627 2.24453C19.6676 2.42227 19.7031 2.79297 19.7031 3.07227C19.7031 3.35156 19.6676 3.72227 19.627 3.89492C19.5813 4.07266 19.4898 4.33672 19.4137 4.47891C19.3426 4.62617 19.2207 4.83945 19.1395 4.95117C19.0633 5.06289 18.9414 5.28125 18.8703 5.43359C18.7941 5.59609 18.7383 5.8043 18.7383 6.14453H17.2148V5.87539C17.2148 5.7332 17.2453 5.4793 17.291 5.3168C17.3316 5.15937 17.4332 4.89531 17.5145 4.73281C17.5906 4.57539 17.7531 4.29609 17.8699 4.11328C17.9867 3.93047 18.1035 3.70195 18.1289 3.60547C18.1543 3.50898 18.1797 3.26523 18.1797 3.07227C18.1797 2.87422 18.1543 2.63555 18.1289 2.53906C18.1035 2.44258 17.9867 2.21406 17.8699 2.03125C17.7531 1.84844 17.5906 1.56914 17.5145 1.40664C17.4332 1.24922 17.3316 0.985156 17.291 0.822656C17.2453 0.665234 17.2148 0.411328 17.2148 0.264062V0ZM3.91016 7.69336C4.08789 7.70352 4.37734 7.76445 4.54492 7.83047C4.7125 7.89141 4.95117 8.02852 5.07812 8.13008C5.2 8.23164 5.36758 8.4043 5.44375 8.51094C5.51992 8.62266 5.63672 8.83594 5.81445 9.26758L5.82461 16.6816C5.83477 21.6633 5.82461 24.182 5.78906 24.3496C5.75859 24.4918 5.67734 24.7254 5.61133 24.8727C5.54023 25.0199 5.36758 25.2535 5.23047 25.3906C5.0832 25.5379 4.84961 25.7055 4.68203 25.7766C4.52461 25.8477 4.35195 25.9289 4.30117 25.9543C4.25547 25.9797 4.03203 26 3.80859 26C3.58516 26 3.36172 25.9797 3.31094 25.9543C3.26523 25.9289 3.09258 25.8477 2.93008 25.7766C2.77266 25.7055 2.52891 25.5379 2.3918 25.4059C2.25977 25.2738 2.09727 25.0656 2.03633 24.9488C1.98047 24.832 1.89414 24.6035 1.85352 24.441C1.7875 24.1871 1.77734 23.3187 1.77734 11.9844L0 11.9895V10.466H1.77734V9.99375C1.77734 9.73477 1.80781 9.39453 1.85352 9.23203C1.89414 9.06953 1.98047 8.84102 2.03633 8.72422C2.09727 8.60742 2.25469 8.4043 2.38164 8.27734C2.50859 8.14531 2.71172 7.99297 2.82852 7.93203C2.95039 7.87109 3.16367 7.78984 3.31094 7.74922C3.47852 7.69844 3.70703 7.67812 3.91016 7.69336V7.69336ZM9.85156 7.69336C10.0293 7.70352 10.3188 7.76445 10.4863 7.83047C10.6539 7.89141 10.8926 8.02852 11.0195 8.13008C11.1414 8.23164 11.309 8.4043 11.3852 8.51094C11.4613 8.62266 11.5781 8.83594 11.7559 9.27266L11.766 16.6867C11.7762 21.6633 11.766 24.182 11.7305 24.3547C11.7 24.4918 11.6187 24.7254 11.5527 24.8727C11.4816 25.0199 11.309 25.2535 11.1719 25.3957C11.0246 25.5379 10.791 25.7055 10.6234 25.7766C10.466 25.8477 10.2934 25.9289 10.2426 25.9543C10.1969 25.9797 9.97344 26.0051 9.75 26.0051C9.52656 26.0051 9.30312 25.9797 9.25234 25.9543C9.20664 25.9289 9.03398 25.8477 8.87148 25.7766C8.71406 25.7055 8.47031 25.5379 8.3332 25.4059C8.20117 25.2738 8.03867 25.0656 7.97773 24.9488C7.92188 24.832 7.83555 24.6035 7.79492 24.441C7.72891 24.1871 7.71875 23.1867 7.71875 16.834C7.71875 10.4863 7.72891 9.48594 7.79492 9.23203C7.83555 9.06953 7.92188 8.84102 7.97773 8.72422C8.03867 8.60742 8.19609 8.4043 8.32305 8.27734C8.45 8.14531 8.65312 7.99297 8.76992 7.93203C8.8918 7.87109 9.10508 7.78984 9.25234 7.74922C9.41992 7.69844 9.64844 7.67812 9.85156 7.69336V7.69336ZM15.4375 7.69336C15.6152 7.70352 15.9047 7.76445 16.0723 7.83047C16.2398 7.89141 16.4785 8.02852 16.6055 8.13008C16.7273 8.23164 16.8949 8.4043 16.9711 8.51094C17.0473 8.62266 17.1641 8.83594 17.3418 9.27266L17.352 16.6867C17.3621 21.6633 17.352 24.182 17.3164 24.3547C17.2859 24.4918 17.2047 24.7254 17.1387 24.8727C17.0676 25.0199 16.8949 25.2535 16.7578 25.3957C16.6105 25.5379 16.377 25.7055 16.2094 25.7766C16.052 25.8477 15.8793 25.9289 15.8285 25.9543C15.7828 25.9797 15.5594 26.0051 15.3359 26.0051C15.1125 26.0051 14.8891 25.9797 14.8383 25.9543C14.7926 25.9289 14.6199 25.8477 14.4574 25.7766C14.3 25.7055 14.0563 25.5379 13.9191 25.4059C13.7871 25.2738 13.6246 25.0656 13.5637 24.9488C13.5078 24.832 13.4215 24.6035 13.3809 24.441C13.3148 24.1871 13.3047 23.1867 13.3047 16.834C13.3047 10.4863 13.3148 9.48594 13.3809 9.23203C13.4215 9.06953 13.5078 8.84102 13.5637 8.72422C13.6246 8.60742 13.782 8.4043 13.909 8.27734C14.0359 8.14531 14.2391 7.99297 14.3559 7.93203C14.4777 7.87109 14.691 7.78984 14.8383 7.74922C15.0059 7.69844 15.2344 7.67812 15.4375 7.69336ZM21.0234 7.69336C21.2012 7.70352 21.4906 7.76445 21.6582 7.83047C21.8258 7.89141 22.0645 8.02852 22.1914 8.13008C22.3133 8.23164 22.4809 8.4043 22.557 8.51094C22.6332 8.62266 22.7449 8.83594 22.8059 8.99336C22.8922 9.20664 22.9227 9.40469 22.9531 10.466H24.4766V8.63789H26V11.9895H22.9531V18.068C22.9531 23.3187 22.943 24.1871 22.877 24.441C22.8363 24.6035 22.75 24.832 22.6891 24.9488C22.6281 25.0656 22.4707 25.2738 22.3336 25.4059C22.1965 25.5379 21.9578 25.7055 21.7953 25.7766C21.6379 25.8477 21.4652 25.9289 21.4145 25.9543C21.3688 25.9797 21.1453 26.0051 20.9219 26.0051C20.6984 26.0051 20.475 25.9797 20.4242 25.9543C20.3785 25.9289 20.2059 25.8477 20.0434 25.7766C19.8859 25.7055 19.6422 25.5379 19.5051 25.4059C19.373 25.2738 19.2105 25.0656 19.1496 24.9488C19.0938 24.832 19.0074 24.6035 18.9668 24.441C18.9008 24.1871 18.8906 23.1867 18.8906 16.834C18.8906 10.4863 18.9008 9.48594 18.9668 9.23203C19.0074 9.06953 19.0938 8.84102 19.1496 8.72422C19.2105 8.60742 19.368 8.4043 19.4949 8.27734C19.6219 8.14531 19.825 7.99297 19.9418 7.93203C20.0637 7.87109 20.277 7.78984 20.4242 7.74922C20.5918 7.69844 20.8203 7.67812 21.0234 7.69336V7.69336Z" fill="#0D4998"/>
</g>
<defs>
<clipPath id="clip0_4271_10276">
<rect width="26" height="26" fill="white"/>
</clipPath>
</defs>
</svg>
